<svg xmlns="http://www.w3.org/2000/svg" viewBox="0 0 3333 3333" shape-rendering="geometricPrecision" text-rendering="geometricPrecision" image-rendering="optimizeQuality" fill="#333" fill-rule="evenodd" clip-rule="evenodd">
    <path d="M1667 0c920 0 1667 746 1667 1667 0 920-746 1667-1667 1667C747 3334 0 2588 0 1667 0 747 746 0 1667 0zm-450 1000h380c140 0 250 25 330 75 80 50 120 130 120 240 0 80-20 145-60 195-25 30-65 55-120 75v5c85 20 145 55 180 105 35 50 53 115 53 195 0 80-20 150-60 210-25 40-60 70-105 95-30 15-70 28-120 38-70 10-120 15-150 15h-448V1000zm357 472h83c75 0 128-10 158-30 30-20 45-55 45-105 0-45-15-77-45-95-30-18-82-28-158-28h-83v258zm0 472h93c83 0 140-12 173-35 32-23 48-62 48-115 0-48-16-83-48-105-32-22-90-33-173-33h-93v288z"/></svg>
    